# Blender v2.69 (sub 0) OBJ File: ''
# www.blender.org
o Cube.004
v 0.000001 -1.000000 -0.000000
v 0.000000 -1.000000 1.000000
v -8.521261 -1.000000 -0.000000
v -0.000001 1.000000 0.000000
v -8.521263 1.000000 0.000000
v -8.521265 1.000000 1.000000
v 8.521261 0.000000 0.000000
v 8.521261 1.000000 0.000001
v 8.521259 -0.000000 1.000000
v -0.000003 -0.000000 1.000000
v -0.000005 1.000000 1.000000
v -8.521264 -0.000000 1.000000
v -8.521262 0.000000 0.000000
v -8.521260 0.000000 -1.000000
v 0.000002 0.000000 -1.000000
v 0.000002 -1.000000 -1.000000
v -8.521259 -1.000000 -1.000000
v 8.521262 -1.000000 -1.000000
v 8.521262 -1.000000 -0.000000
v 8.521262 -1.000000 1.000000
v 7.456103 1.000000 0.000000
v 8.521256 1.000000 1.000001
v 7.456103 2.024151 0.000000
v 7.456103 1.877844 0.000000
v 7.456103 2.024151 0.992509
v -8.521263 2.170459 0.000000
v 8.521264 0.000000 -1.000000
v 8.521266 1.000000 -0.999999
v -8.521263 -1.000000 1.000000
v 0.000002 1.000000 -1.000000
v -8.521261 1.000000 -1.000000
v 0.000002 2.170459 -1.000000
v -0.000001 2.170459 0.000000
v 1.065156 2.170459 0.000000
v -8.521261 2.170459 -1.000000
v 8.521266 2.170459 -0.999999
v 3.195472 2.024151 0.000000
v 4.260630 2.024151 0.000000
v 3.195472 2.170459 0.000000
v 3.195472 1.438922 0.000000
v 4.260630 1.438922 0.000000
v 3.195472 1.585229 0.000000
v 8.521261 1.292615 0.000001
v 8.521261 1.438922 0.000001
v 8.521261 1.292615 0.992509
v 5.325788 2.024151 0.000000
v 6.390945 2.024151 0.000000
v 5.325788 2.170459 0.000000
v 5.325788 1.731537 0.000000
v 6.390945 1.731537 0.000000
v 5.325788 1.877844 0.000000
v 8.521261 1.585229 0.000001
v 8.521261 1.731537 0.000001
v 8.521261 1.585229 0.992509
v 1.065156 2.024151 0.000000
v 2.130314 2.024151 0.000000
v 1.065156 1.731537 0.000000
v 2.130314 1.731537 0.000000
v 1.065156 1.877844 0.000000
v 3.195472 1.731537 0.000000
v 4.260630 1.731537 0.000000
v 3.195472 1.877844 0.000000
v 1.065156 1.438922 0.000000
v 2.130314 1.438922 0.000000
v 1.065156 1.585229 0.000000
v 1.065156 1.146307 0.000000
v 2.130314 1.146307 0.000000
v 1.065156 1.292615 0.000000
v 3.195472 1.146307 0.000000
v 4.260630 1.146307 0.000000
v 3.195472 1.292615 0.000000
v 5.325788 1.438922 0.000000
v 6.390945 1.438922 0.000000
v 5.325788 1.585229 0.000000
v 5.325788 1.146307 0.000000
v 6.390945 1.146307 0.000000
v 5.325788 1.292615 0.000000
v 7.456103 1.731537 0.000000
v 7.456103 1.585229 0.000000
v 7.456103 1.731537 0.992509
v 6.390945 2.170459 0.000000
v 6.390945 1.877844 0.000000
v 8.521261 1.438922 0.992509
v 2.130314 2.170459 0.000000
v 2.130314 1.877844 0.000000
v 4.260630 1.877844 0.000000
v 2.130314 1.585229 0.000000
v 2.130314 1.292615 0.000000
v 4.260630 1.292615 0.000000
v 7.456103 1.438922 0.000000
v 6.390945 1.585229 0.000000
v 6.390945 1.292615 0.000000
v 7.456103 1.292615 0.000000
v 8.521261 2.170459 0.000001
v 7.456103 2.170459 0.000000
v 8.521261 2.170459 0.992509
v 4.260630 2.170459 0.000000
v 4.260630 1.585229 0.000000
v 7.456103 1.146307 0.000000
v 7.456103 1.292615 0.992509
v -0.000001 1.292615 0.000000
v -0.000001 1.146307 0.000000
v -0.000001 1.292615 0.211359
v 1.065156 1.000000 0.000000
v -0.000001 1.000000 0.211359
v 1.065156 1.000000 0.211359
v -0.000001 1.146307 0.211359
v 1.065156 1.438922 0.211359
v 1.065156 1.877844 0.211359
v -0.000001 1.877844 0.000000
v -0.000001 1.731537 0.000000
v -0.000001 1.877844 0.211359
v -0.000001 2.024151 0.000000
v -0.000001 2.170459 0.211359
v 2.130314 1.000000 0.000000
v 3.195472 1.000000 0.000000
v 4.260630 1.000000 0.000000
v 5.325788 1.000000 0.000000
v 6.390945 1.000000 0.000000
v 8.521261 1.877844 0.000001
v 8.521261 2.024151 0.000001
v 8.521261 1.877844 0.992509
v -0.000001 1.146307 0.993725
v 1.065156 1.731537 0.211359
v 1.065156 1.731537 0.993725
v -0.000001 1.731537 0.211359
v -0.000001 1.585229 0.211359
v -0.000001 1.731537 0.993725
v 1.065156 1.292615 0.211359
v 1.065156 1.292615 0.993725
v -0.000001 2.024151 0.211359
v -0.000001 2.024151 0.993725
v -0.000001 1.877844 0.993725
v -0.000001 2.170459 0.993725
v 1.065156 1.146307 0.211359
v 1.065156 1.146307 0.993725
v 1.065156 2.024151 0.211359
v -0.000001 1.585229 0.000000
v -0.000001 1.438922 0.000000
v 1.065156 2.170459 0.211359
v -0.000001 1.438922 0.211359
v 1.065156 1.585229 0.211359
v 1.065156 2.024151 0.993725
v 1.065156 1.877844 0.993725
v -0.000001 1.585229 0.993725
v 1.065156 1.585229 0.993725
v -0.000001 1.438922 0.993725
v 1.065156 1.438922 0.993725
v -0.000001 1.292615 0.993725
v -0.000001 1.000000 0.993725
v 1.065156 1.000000 0.993725
v 1.065156 2.170459 0.993725
v 8.521261 2.024151 0.992509
v 7.456103 2.170459 0.992509
v 7.456103 1.438922 0.992509
v 7.456103 1.585229 0.992509
v 8.521261 1.731537 0.992509
v 7.456103 1.877844 0.992509
v 7.456103 1.146307 0.992509
v 8.521261 1.146307 0.992509
v 7.456103 1.000000 0.992509
v 8.521261 1.000000 0.992509
v 8.521261 1.146307 0.000001
vn 0.000000 -1.000000 0.000000
vn 0.000000 1.000000 0.000000
vn 1.000000 0.000002 0.000002
vn 0.000000 -0.000000 1.000000
vn -1.000000 0.000000 -0.000002
vn 0.000000 0.000000 -1.000000
vn -1.000000 -0.000007 0.000000
vn 1.000000 0.000004 0.000000
vn 1.000000 -0.000002 -0.000000
vn 1.000000 0.000000 0.000003
vn -0.000000 -0.000001 1.000000
vn -1.000000 -0.000004 -0.000002
vn 0.000000 0.000001 -1.000000
vn 1.000000 0.000001 0.000005
vn 1.000000 0.000000 0.000000
vn 1.000000 0.000013 0.000000
vn -1.000000 -0.000000 0.000000
vn 1.000000 0.000001 0.000000
vn 1.000000 -0.000001 0.000000
vn 0.000000 1.000000 0.000001
vn -1.000000 -0.000003 -0.000002
vn 0.000000 1.000000 -0.000001
vn 1.000000 0.000001 0.000002
vn 1.000000 -0.000001 0.000003
vn 1.000000 -0.000001 0.000005
vn -1.000000 -0.000001 -0.000002
vn 0.000000 1.000000 -0.000002
vn 0.000000 1.000000 0.000002
vn 1.000000 -0.000013 0.000005
vn 1.000000 0.000000 0.000005
vn 1.000000 -0.000006 0.000000
vn 0.000000 -1.000000 -0.000001
vn 1.000000 0.000007 0.000000
s off
f 1//1 2//1 3//1
f 4//2 5//2 6//2
f 7//3 8//3 9//3
f 10//4 11//4 12//4
f 13//5 5//5 14//5
f 15//6 16//6 14//6
f 16//1 1//1 17//1
f 18//1 19//1 16//1
f 20//1 1//1 19//1
f 8//2 21//2 22//2
f 23//7 24//7 25//7
f 5//4 4//4 26//4
f 19//8 7//8 20//8
f 18//9 27//9 19//9
f 27//10 28//10 7//10
f 2//4 10//4 29//4
f 20//4 9//4 10//4
f 9//11 22//11 11//11
f 3//12 13//12 17//12
f 29//5 12//5 3//5
f 12//5 6//5 13//5
f 30//6 15//6 31//6
f 28//13 27//13 30//13
f 27//6 18//6 15//6
f 32//2 33//2 34//2
f 32//2 35//2 26//2
f 28//6 30//6 36//6
f 8//14 28//14 36//14
f 31//5 5//5 35//5
f 30//6 31//6 32//6
f 37//4 38//4 39//4
f 40//4 41//4 42//4
f 43//15 44//15 45//15
f 46//4 47//4 48//4
f 49//4 50//4 51//4
f 52//16 53//16 54//16
f 55//4 56//4 34//4
f 57//4 58//4 59//4
f 60//4 61//4 62//4
f 63//4 64//4 65//4
f 66//4 67//4 68//4
f 69//4 70//4 71//4
f 72//4 73//4 74//4
f 75//4 76//4 77//4
f 78//7 79//7 80//7
f 47//4 23//4 81//4
f 82//4 24//4 47//4
f 44//15 52//15 83//15
f 56//4 37//4 84//4
f 85//4 62//4 56//4
f 62//4 86//4 37//4
f 64//4 40//4 87//4
f 88//4 71//4 64//4
f 71//4 89//4 40//4
f 73//4 90//4 91//4
f 92//4 93//4 73//4
f 94//2 95//2 96//2
f 38//4 46//4 97//4
f 86//4 51//4 38//4
f 51//4 82//4 46//4
f 61//4 49//4 86//4
f 98//4 74//4 61//4
f 74//4 91//4 49//4
f 50//4 78//4 82//4
f 91//4 79//4 50//4
f 93//7 99//7 100//7
f 101//17 102//17 103//17
f 4//1 104//1 105//1
f 59//4 85//4 55//4
f 104//18 66//18 106//18
f 102//17 4//17 107//17
f 65//4 87//4 57//4
f 58//4 60//4 85//4
f 87//4 42//4 58//4
f 42//4 98//4 60//4
f 63//15 65//15 108//15
f 59//15 55//15 109//15
f 68//4 88//4 63//4
f 110//17 111//17 112//17
f 33//17 113//17 114//17
f 104//4 115//4 66//4
f 67//4 69//4 88//4
f 115//4 116//4 67//4
f 116//4 117//4 69//4
f 41//4 72//4 98//4
f 89//4 77//4 41//4
f 77//4 92//4 72//4
f 70//4 75//4 89//4
f 117//4 118//4 70//4
f 118//4 119//4 75//4
f 76//4 99//4 92//4
f 119//4 21//4 76//4
f 120//15 121//15 122//15
f 107//17 105//17 123//17
f 124//15 109//15 125//15
f 126//17 127//17 128//17
f 129//19 108//19 130//19
f 131//17 112//17 132//17
f 112//17 126//17 133//17
f 114//17 131//17 134//17
f 135//15 129//15 136//15
f 57//18 59//18 124//18
f 68//18 63//18 129//18
f 113//17 110//17 131//17
f 55//18 34//18 137//18
f 138//17 139//17 127//17
f 34//2 33//2 140//2
f 66//15 68//15 135//15
f 111//17 138//17 126//17
f 139//17 101//17 141//17
f 65//18 57//18 142//18
f 132//4 143//4 134//4
f 133//4 144//4 132//4
f 128//4 125//4 133//4
f 145//4 146//4 128//4
f 147//4 148//4 145//4
f 149//4 130//4 147//4
f 123//4 136//4 149//4
f 150//4 151//4 123//4
f 109//15 137//15 144//15
f 106//15 135//15 151//15
f 105//1 106//1 150//1
f 141//17 103//17 147//17
f 103//17 107//17 149//17
f 108//18 142//18 148//18
f 127//17 141//17 145//17
f 142//19 124//19 146//19
f 140//20 114//20 152//20
f 137//19 140//19 143//19
f 25//4 153//4 154//4
f 155//4 83//4 156//4
f 80//4 157//4 158//4
f 159//4 160//4 100//4
f 158//4 122//4 25//4
f 100//4 45//4 155//4
f 156//4 54//4 80//4
f 161//4 162//4 159//4
f 79//17 90//17 156//17
f 121//15 94//15 153//15
f 53//15 120//15 157//15
f 99//17 21//17 159//17
f 21//1 8//1 161//1
f 8//15 163//15 162//15
f 90//17 93//17 155//17
f 24//17 78//17 158//17
f 163//15 43//15 160//15
f 95//17 23//17 154//17
f 2//1 29//1 3//1
f 11//2 4//2 6//2
f 8//14 22//14 9//14
f 11//4 6//4 12//4
f 5//21 31//21 14//21
f 16//6 17//6 14//6
f 1//1 3//1 17//1
f 19//1 1//1 16//1
f 2//1 1//1 20//1
f 11//2 104//2 4//2
f 21//2 119//2 22//2
f 119//2 118//2 22//2
f 118//2 117//2 22//2
f 117//22 116//22 22//22
f 22//2 116//2 11//2
f 116//2 115//2 11//2
f 115//2 104//2 11//2
f 24//17 158//17 25//17
f 26//4 113//4 33//4
f 26//4 110//4 113//4
f 26//4 111//4 110//4
f 26//4 138//4 111//4
f 26//4 139//4 138//4
f 26//4 101//4 139//4
f 4//4 102//4 26//4
f 102//4 101//4 26//4
f 7//23 9//23 20//23
f 27//24 7//24 19//24
f 28//25 8//25 7//25
f 10//4 12//4 29//4
f 2//4 20//4 10//4
f 10//4 9//4 11//4
f 13//5 14//5 17//5
f 12//26 13//26 3//26
f 6//26 5//26 13//26
f 15//6 14//6 31//6
f 27//6 15//6 30//6
f 18//6 16//6 15//6
f 94//20 36//20 95//20
f 36//2 32//2 95//2
f 32//20 34//20 84//20
f 95//27 32//27 81//27
f 32//2 84//2 39//2
f 81//28 32//28 48//28
f 32//28 39//28 97//28
f 48//2 32//2 97//2
f 33//2 32//2 26//2
f 30//6 32//6 36//6
f 121//29 36//29 94//29
f 120//30 36//30 121//30
f 53//30 36//30 120//30
f 52//30 36//30 53//30
f 44//30 36//30 52//30
f 43//29 36//29 44//29
f 163//30 8//30 36//30
f 43//30 163//30 36//30
f 5//5 26//5 35//5
f 31//6 35//6 32//6
f 38//4 97//4 39//4
f 41//4 98//4 42//4
f 44//15 83//15 45//15
f 47//4 81//4 48//4
f 50//4 82//4 51//4
f 53//31 157//31 54//31
f 56//4 84//4 34//4
f 58//4 85//4 59//4
f 61//4 86//4 62//4
f 64//4 87//4 65//4
f 67//4 88//4 68//4
f 70//4 89//4 71//4
f 73//4 91//4 74//4
f 76//4 92//4 77//4
f 79//17 156//17 80//17
f 23//4 95//4 81//4
f 24//4 23//4 47//4
f 52//15 54//15 83//15
f 37//4 39//4 84//4
f 62//4 37//4 56//4
f 86//4 38//4 37//4
f 40//4 42//4 87//4
f 71//4 40//4 64//4
f 89//4 41//4 40//4
f 90//4 79//4 91//4
f 93//4 90//4 73//4
f 95//2 154//2 96//2
f 46//4 48//4 97//4
f 51//4 46//4 38//4
f 82//4 47//4 46//4
f 49//4 51//4 86//4
f 74//4 49//4 61//4
f 91//4 50//4 49//4
f 78//4 24//4 82//4
f 79//4 78//4 50//4
f 99//17 159//17 100//17
f 102//17 107//17 103//17
f 104//32 106//32 105//32
f 85//4 56//4 55//4
f 66//19 135//19 106//19
f 4//17 105//17 107//17
f 87//4 58//4 57//4
f 60//4 62//4 85//4
f 42//4 60//4 58//4
f 98//4 61//4 60//4
f 65//19 142//19 108//19
f 55//19 137//19 109//19
f 88//4 64//4 63//4
f 111//17 126//17 112//17
f 113//17 131//17 114//17
f 115//4 67//4 66//4
f 69//4 71//4 88//4
f 116//4 69//4 67//4
f 117//4 70//4 69//4
f 72//4 74//4 98//4
f 77//4 72//4 41//4
f 92//4 73//4 72//4
f 75//4 77//4 89//4
f 118//4 75//4 70//4
f 119//4 76//4 75//4
f 99//4 93//4 92//4
f 21//4 99//4 76//4
f 121//33 153//33 122//33
f 105//17 150//17 123//17
f 109//15 144//15 125//15
f 127//17 145//17 128//17
f 108//15 148//15 130//15
f 112//17 133//17 132//17
f 126//17 128//17 133//17
f 131//17 132//17 134//17
f 129//15 130//15 136//15
f 59//19 109//19 124//19
f 63//19 108//19 129//19
f 110//17 112//17 131//17
f 34//19 140//19 137//19
f 139//17 141//17 127//17
f 33//2 114//2 140//2
f 68//19 129//19 135//19
f 138//17 127//17 126//17
f 101//17 103//17 141//17
f 57//19 124//19 142//19
f 143//4 152//4 134//4
f 144//4 143//4 132//4
f 125//4 144//4 133//4
f 146//4 125//4 128//4
f 148//4 146//4 145//4
f 130//4 148//4 147//4
f 136//4 130//4 149//4
f 151//4 136//4 123//4
f 137//15 143//15 144//15
f 135//15 136//15 151//15
f 106//1 151//1 150//1
f 103//17 149//17 147//17
f 107//17 123//17 149//17
f 142//15 146//15 148//15
f 141//17 147//17 145//17
f 124//15 125//15 146//15
f 114//2 134//2 152//2
f 140//15 152//15 143//15
f 153//4 96//4 154//4
f 83//4 54//4 156//4
f 157//4 122//4 158//4
f 160//4 45//4 100//4
f 122//4 153//4 25//4
f 45//4 83//4 155//4
f 54//4 157//4 80//4
f 162//4 160//4 159//4
f 90//17 155//17 156//17
f 94//15 96//15 153//15
f 120//15 122//15 157//15
f 21//17 161//17 159//17
f 8//1 162//1 161//1
f 163//15 160//15 162//15
f 93//17 100//17 155//17
f 78//17 80//17 158//17
f 43//33 45//33 160//33
f 23//17 25//17 154//17
